<mxfile host="app.diagrams.net" modified="2024-07-17T12:53:42.353Z" agent="Mozilla/5.0 (Windows NT 10.0; Win64; x64) AppleWebKit/537.36 (KHTML, like Gecko) Chrome/126.0.0.0 Safari/537.36" etag="Xe1H-z-_b3Ji_7aR8hsh" version="24.6.5" type="github">
  <diagram name="Page-1" id="MN1RGfTH_ubMWvqQHZo5">
    <mxGraphModel dx="2295" dy="951" grid="1" gridSize="10" guides="1" tooltips="1" connect="1" arrows="1" fold="1" page="1" pageScale="1" pageWidth="827" pageHeight="1169" math="0" shadow="0">
      <root>
        <mxCell id="0" />
        <mxCell id="1" parent="0" />
        <mxCell id="9CtTB6iVWJLlR-XitF7s-34" value="&lt;h1&gt;&lt;font style=&quot;font-size: 16px; font-weight: normal;&quot;&gt;Trella Architecture Diagram&lt;/font&gt;&lt;/h1&gt;&lt;div&gt;&lt;br&gt;&lt;/div&gt;&lt;div&gt;&lt;br&gt;&lt;/div&gt;&lt;div&gt;&lt;br&gt;&lt;/div&gt;&lt;div&gt;&lt;br&gt;&lt;/div&gt;&lt;div&gt;&lt;br&gt;&lt;/div&gt;&lt;div&gt;&lt;br&gt;&lt;/div&gt;&lt;div&gt;&lt;br&gt;&lt;/div&gt;&lt;div&gt;&lt;br&gt;&lt;/div&gt;&lt;div&gt;&lt;br&gt;&lt;/div&gt;&lt;div&gt;&lt;br&gt;&lt;/div&gt;&lt;div&gt;&lt;br&gt;&lt;/div&gt;&lt;div&gt;&lt;br&gt;&lt;/div&gt;&lt;div&gt;&lt;br&gt;&lt;/div&gt;&lt;div&gt;&lt;br&gt;&lt;/div&gt;&lt;div&gt;&lt;br&gt;&lt;/div&gt;&lt;div&gt;&lt;br&gt;&lt;/div&gt;&lt;div&gt;&lt;br&gt;&lt;/div&gt;&lt;div&gt;&lt;br&gt;&lt;/div&gt;&lt;div&gt;&lt;br&gt;&lt;/div&gt;&lt;div&gt;&lt;br&gt;&lt;/div&gt;&lt;div&gt;&lt;br&gt;&lt;/div&gt;&lt;div&gt;&lt;br&gt;&lt;/div&gt;&lt;div&gt;&lt;br&gt;&lt;/div&gt;&lt;div&gt;&lt;br&gt;&lt;/div&gt;&lt;div&gt;&lt;br&gt;&lt;/div&gt;&lt;div&gt;&lt;br&gt;&lt;/div&gt;&lt;div&gt;&lt;br&gt;&lt;/div&gt;&lt;div&gt;&lt;br&gt;&lt;/div&gt;&lt;div&gt;&lt;br&gt;&lt;/div&gt;&lt;div&gt;&lt;br&gt;&lt;/div&gt;&lt;div&gt;&lt;br&gt;&lt;/div&gt;&lt;div&gt;&lt;br&gt;&lt;/div&gt;&lt;div&gt;&lt;br&gt;&lt;/div&gt;&lt;div&gt;&lt;br&gt;&lt;/div&gt;&lt;div&gt;&lt;br&gt;&lt;/div&gt;&lt;div&gt;&lt;br&gt;&lt;/div&gt;&lt;div&gt;&lt;br&gt;&lt;/div&gt;&lt;div&gt;&lt;br&gt;&lt;/div&gt;&lt;div&gt;&lt;br&gt;&lt;/div&gt;&lt;div&gt;&lt;br&gt;&lt;/div&gt;&lt;div&gt;&lt;br&gt;&lt;/div&gt;&lt;div&gt;&lt;br&gt;&lt;/div&gt;&lt;div&gt;&lt;br&gt;&lt;/div&gt;&lt;div&gt;&lt;br&gt;&lt;/div&gt;&lt;div&gt;&lt;br&gt;&lt;/div&gt;&lt;div&gt;&lt;br&gt;&lt;/div&gt;&lt;div&gt;&lt;br&gt;&lt;/div&gt;&lt;div&gt;&lt;br&gt;&lt;/div&gt;&lt;div&gt;&lt;br&gt;&lt;/div&gt;&lt;div&gt;&lt;br&gt;&lt;/div&gt;" style="rounded=0;whiteSpace=wrap;html=1;fillColor=none;dashed=1;" parent="1" vertex="1">
          <mxGeometry x="-400" y="290" width="940" height="770" as="geometry" />
        </mxCell>
        <mxCell id="9CtTB6iVWJLlR-XitF7s-31" value="Databases" style="whiteSpace=wrap;strokeWidth=2;verticalAlign=top;" parent="1" vertex="1">
          <mxGeometry x="307.5" y="350" width="160" height="560" as="geometry" />
        </mxCell>
        <mxCell id="9CtTB6iVWJLlR-XitF7s-32" value="Microservices&#xa;(NodeJS)" style="whiteSpace=wrap;strokeWidth=2;verticalAlign=top;" parent="1" vertex="1">
          <mxGeometry x="-36.5" y="350" width="160" height="560" as="geometry" />
        </mxCell>
        <mxCell id="8_2Vw-NwWke6ewr3Q1dN-43" style="edgeStyle=orthogonalEdgeStyle;rounded=0;orthogonalLoop=1;jettySize=auto;html=1;entryX=1.001;entryY=0.542;entryDx=0;entryDy=0;dashed=1;dashPattern=8 8;entryPerimeter=0;" edge="1" parent="1" source="4" target="9PjwMY_K1oDYDUdfSiUO-27">
          <mxGeometry relative="1" as="geometry">
            <mxPoint x="43.5" y="520.01" as="sourcePoint" />
            <mxPoint x="-96" y="1000.0999999999999" as="targetPoint" />
            <Array as="points">
              <mxPoint x="44" y="510" />
              <mxPoint x="510" y="510" />
              <mxPoint x="510" y="980" />
              <mxPoint x="-96" y="980" />
            </Array>
          </mxGeometry>
        </mxCell>
        <mxCell id="4" value="User&#xa;Service" style="ellipse;aspect=fixed;strokeWidth=2;whiteSpace=wrap;" parent="1" vertex="1">
          <mxGeometry x="-6.5" y="397.5" width="100" height="100" as="geometry" />
        </mxCell>
        <mxCell id="16" value="Client" style="whiteSpace=wrap;strokeWidth=2;verticalAlign=top;" parent="1" vertex="1">
          <mxGeometry x="-370" y="535" width="80" height="100" as="geometry" />
        </mxCell>
        <mxCell id="17" value="UI" style="ellipse;aspect=fixed;strokeWidth=2;whiteSpace=wrap;" parent="1" vertex="1">
          <mxGeometry x="-345" y="570" width="30" height="30" as="geometry" />
        </mxCell>
        <mxCell id="8_2Vw-NwWke6ewr3Q1dN-40" style="edgeStyle=orthogonalEdgeStyle;rounded=0;orthogonalLoop=1;jettySize=auto;html=1;exitX=0.5;exitY=1;exitDx=0;exitDy=0;entryX=1;entryY=0.5;entryDx=0;entryDy=0;dashed=1;dashPattern=12 12;" edge="1" parent="1">
          <mxGeometry relative="1" as="geometry">
            <mxPoint x="43.5" y="635" as="sourcePoint" />
            <mxPoint x="-96" y="980.0900000000001" as="targetPoint" />
            <Array as="points">
              <mxPoint x="44" y="640" />
              <mxPoint x="510" y="640" />
              <mxPoint x="510" y="980" />
            </Array>
          </mxGeometry>
        </mxCell>
        <mxCell id="8_2Vw-NwWke6ewr3Q1dN-42" value="EVENTUAL CACHE UPDATE" style="edgeLabel;html=1;align=center;verticalAlign=middle;resizable=0;points=[];" vertex="1" connectable="0" parent="8_2Vw-NwWke6ewr3Q1dN-40">
          <mxGeometry x="0.2612" y="3" relative="1" as="geometry">
            <mxPoint x="-57" as="offset" />
          </mxGeometry>
        </mxCell>
        <mxCell id="8_2Vw-NwWke6ewr3Q1dN-45" style="edgeStyle=orthogonalEdgeStyle;rounded=0;orthogonalLoop=1;jettySize=auto;html=1;entryX=0;entryY=0.25;entryDx=0;entryDy=0;" edge="1" parent="1" source="9CtTB6iVWJLlR-XitF7s-29" target="8_2Vw-NwWke6ewr3Q1dN-46">
          <mxGeometry relative="1" as="geometry">
            <Array as="points">
              <mxPoint x="44" y="705" />
            </Array>
          </mxGeometry>
        </mxCell>
        <mxCell id="9CtTB6iVWJLlR-XitF7s-29" value="Card&#xa;Service" style="ellipse;aspect=fixed;strokeWidth=2;whiteSpace=wrap;" parent="1" vertex="1">
          <mxGeometry x="-6.5" y="532.5" width="100" height="100" as="geometry" />
        </mxCell>
        <mxCell id="9CtTB6iVWJLlR-XitF7s-30" value="Board&#xa;Service" style="ellipse;aspect=fixed;strokeWidth=2;whiteSpace=wrap;" parent="1" vertex="1">
          <mxGeometry x="-6.5" y="770" width="100" height="100" as="geometry" />
        </mxCell>
        <mxCell id="5" value="MySQL&#xa;Database" style="ellipse;aspect=fixed;strokeWidth=2;whiteSpace=wrap;" parent="1" vertex="1">
          <mxGeometry x="340" y="400" width="95" height="95" as="geometry" />
        </mxCell>
        <mxCell id="27" value="" style="curved=1;startArrow=none;endArrow=block;exitX=1;exitY=0.5;entryX=0;entryY=0.5;exitDx=0;exitDy=0;entryDx=0;entryDy=0;" parent="1" source="4" target="5" edge="1">
          <mxGeometry relative="1" as="geometry">
            <Array as="points" />
            <mxPoint x="93.5" y="472.5000000000001" as="sourcePoint" />
            <mxPoint x="232.5000000000041" y="470.0000000000001" as="targetPoint" />
          </mxGeometry>
        </mxCell>
        <mxCell id="9CtTB6iVWJLlR-XitF7s-33" value="API Gateway" style="whiteSpace=wrap;strokeWidth=2;verticalAlign=top;" parent="1" vertex="1">
          <mxGeometry x="-256" y="350" width="160" height="560" as="geometry" />
        </mxCell>
        <mxCell id="9PjwMY_K1oDYDUdfSiUO-32" style="edgeStyle=orthogonalEdgeStyle;rounded=0;orthogonalLoop=1;jettySize=auto;html=1;exitX=0.5;exitY=1;exitDx=0;exitDy=0;entryX=0.5;entryY=0;entryDx=0;entryDy=0;startArrow=classic;startFill=1;" parent="1" source="15" target="9PjwMY_K1oDYDUdfSiUO-27" edge="1">
          <mxGeometry relative="1" as="geometry" />
        </mxCell>
        <mxCell id="9PjwMY_K1oDYDUdfSiUO-36" value="READ / WRITE" style="edgeLabel;html=1;align=center;verticalAlign=middle;resizable=0;points=[];" parent="9PjwMY_K1oDYDUdfSiUO-32" vertex="1" connectable="0">
          <mxGeometry x="-0.158" y="-1" relative="1" as="geometry">
            <mxPoint as="offset" />
          </mxGeometry>
        </mxCell>
        <mxCell id="15" value="Gateway" style="ellipse;aspect=fixed;strokeWidth=2;whiteSpace=wrap;" parent="1" vertex="1">
          <mxGeometry x="-215" y="546" width="78" height="78" as="geometry" />
        </mxCell>
        <mxCell id="21" value="" style="curved=1;startArrow=none;endArrow=block;exitX=0.66;exitY=0;entryX=0;entryY=0.5;entryDx=0;entryDy=0;" parent="1" source="15" target="4" edge="1">
          <mxGeometry relative="1" as="geometry">
            <Array as="points">
              <mxPoint x="-113" y="460" />
            </Array>
            <mxPoint x="-38" y="395" as="targetPoint" />
          </mxGeometry>
        </mxCell>
        <mxCell id="20" value="" style="curved=1;startArrow=none;endArrow=block;exitX=0.99;exitY=0.49;entryX=0;entryY=0.5;entryDx=0;entryDy=0;" parent="1" source="15" edge="1" target="9CtTB6iVWJLlR-XitF7s-29">
          <mxGeometry relative="1" as="geometry">
            <Array as="points" />
            <mxPoint x="-37" y="584.5" as="targetPoint" />
          </mxGeometry>
        </mxCell>
        <mxCell id="19" value="" style="curved=1;startArrow=none;endArrow=block;exitX=0.66;exitY=0.99;entryX=0;entryY=0.5;entryDx=0;entryDy=0;" parent="1" source="15" target="9CtTB6iVWJLlR-XitF7s-30" edge="1">
          <mxGeometry relative="1" as="geometry">
            <Array as="points">
              <mxPoint x="-113" y="690" />
            </Array>
            <mxPoint x="-37" y="773.5" as="targetPoint" />
          </mxGeometry>
        </mxCell>
        <mxCell id="18" value="" style="curved=1;startArrow=none;endArrow=block;exitX=0.99;exitY=0.48;entryX=0;entryY=0.49;" parent="1" source="17" target="15" edge="1">
          <mxGeometry relative="1" as="geometry">
            <Array as="points" />
          </mxGeometry>
        </mxCell>
        <mxCell id="9CtTB6iVWJLlR-XitF7s-38" value="" style="curved=1;startArrow=none;endArrow=block;exitX=1;exitY=0.5;entryX=0;entryY=0.5;entryDx=0;entryDy=0;" parent="1" edge="1" target="9CtTB6iVWJLlR-XitF7s-36">
          <mxGeometry relative="1" as="geometry">
            <Array as="points" />
            <mxPoint x="100" y="583" as="sourcePoint" />
            <mxPoint x="190" y="583" as="targetPoint" />
          </mxGeometry>
        </mxCell>
        <mxCell id="9CtTB6iVWJLlR-XitF7s-39" value="" style="curved=1;startArrow=none;endArrow=block;exitX=1;exitY=0.5;entryX=0;entryY=0.5;entryDx=0;entryDy=0;" parent="1" edge="1" target="9CtTB6iVWJLlR-XitF7s-37">
          <mxGeometry relative="1" as="geometry">
            <Array as="points" />
            <mxPoint x="93.5" y="819.38" as="sourcePoint" />
            <mxPoint x="183.5" y="819.38" as="targetPoint" />
          </mxGeometry>
        </mxCell>
        <mxCell id="9PjwMY_K1oDYDUdfSiUO-27" value="Cache" style="whiteSpace=wrap;strokeWidth=2;verticalAlign=top;" parent="1" vertex="1">
          <mxGeometry x="-256" y="940" width="160" height="75.18" as="geometry" />
        </mxCell>
        <mxCell id="9CtTB6iVWJLlR-XitF7s-36" value="MySQL&#xa;Database" style="ellipse;aspect=fixed;strokeWidth=2;whiteSpace=wrap;" parent="1" vertex="1">
          <mxGeometry x="340" y="537" width="95" height="95" as="geometry" />
        </mxCell>
        <mxCell id="9CtTB6iVWJLlR-XitF7s-37" value="MySQL&#xa;Database" style="ellipse;aspect=fixed;strokeWidth=2;whiteSpace=wrap;" parent="1" vertex="1">
          <mxGeometry x="340" y="772.5" width="95" height="95" as="geometry" />
        </mxCell>
        <mxCell id="8_2Vw-NwWke6ewr3Q1dN-48" style="edgeStyle=orthogonalEdgeStyle;rounded=0;orthogonalLoop=1;jettySize=auto;html=1;exitX=0;exitY=0.75;exitDx=0;exitDy=0;" edge="1" parent="1" source="8_2Vw-NwWke6ewr3Q1dN-46" target="9CtTB6iVWJLlR-XitF7s-30">
          <mxGeometry relative="1" as="geometry" />
        </mxCell>
        <mxCell id="8_2Vw-NwWke6ewr3Q1dN-46" value="Message Broker" style="rounded=1;whiteSpace=wrap;html=1;" vertex="1" parent="1">
          <mxGeometry x="150" y="690" width="120" height="60" as="geometry" />
        </mxCell>
      </root>
    </mxGraphModel>
  </diagram>
</mxfile>
